
<svg xmlns="http://www.w3.org/2000/svg" xmlns:xlink="http://www.w3.org/1999/xlink" version="1.1" id="Слой_2" x="0px" y="0px" viewBox="0 126 1590 936" xml:space="preserve">
<path fill="#000000" stroke="" stroke-width="2" stroke-miterlimit="10" d="M1575.8,751.7c-8.7-19.7-39.5-76.7-62-97.9  c-1.6-1.5-3.2-2.9-4.8-4.4c6.1-18.2,11.4-35.2,15.1-46.2c10.3-30.2,4.8-36-8.6-40.9c-26.9-9.9-22.4-9.7-45.2,56.2  c-4.2-3-6.9-4.9-6.9-4.9s0.8-26.2-10.2-42.4c-11-16-30.6-23.3-30.6-23.3s-76.7-18.9-121.2-26.2c-44.5-7.3-76.7-14.6-96.5-29.9  c-19.7-15.4-18.9-59.9-18.9-59.9l8.7-255.6c0,0,1.5-17.5-11.7-22.7c-13.1-5.2-188.4-18.9-281.8-18.9S634,148.4,619.4,149.1  c-14.6,0.8-20.4,13.1-20.4,13.1l1.5,12.5h19.7l-1.5,268c0,0-5.2,8.1-30.6,19.7c-25.6,11.7-57,11.7-57,11.7S342.2,477,269,479.7v-8.5  h4.4v-17.5h-7.8c0.8-3.4,1.2-7.6,1.2-12.1c0-11.9-3-21.6-6.9-21.6s-6.9,9.7-6.9,21.6c0,4.5,0.4,8.6,1.2,12.1h-6.4v17.5h3.7v9.3  c-6.5,0.4-10.3,0.7-11,0.9c-5.8,2.9-18.3,27-21.2,36.6c-2.9,9.5-3.7,88.5-3.7,88.5S201,604,186,604.9c-19.7,1.3-43.5,6-65.3,11.7  C73,629,26.5,672.1,26.5,672.1L39,683.6c0,0,34.3-21.7,51.8-29.8s27.7-5.2,47.4,0s29.1,16.8,29.1,16.8l1.5,13.8  C75.5,693,2.7,771.3,2.7,866.7c0,101.1,82,183.1,183.1,183.1s183.1-82,183.1-183.1c0-3.8-0.1-7.7-0.4-11.4  c32.2-9,85.7-24.2,116.9-34.1c8.1,5.6,16.4,11.4,24.4,16.6c30.6,20.4,83.2,28.9,83.2,28.9l556.5-1.9h10.2l0.8-9.5c0,0,0,0,1.5-11.7  c1.5-11.7,16-70.9,16-70.9s5.4,3.7,13,10.2c-14.8,26.5-23.3,57-23.3,89.4c0,101.1,82,183.1,183.1,183.1  c101.1,0,183.1-82,183.1-183.1c0-41.2-13.6-79.1-36.6-109.7l12.3-33.8c0,0,3.7,0,11.7,2.3c8,2.3,32.2,8.7,37.2,18.9  c5.2,10.2,14.6,35.8,14.6,35.8l13.1-3.7C1586,782.3,1584.6,771.3,1575.8,751.7z M119,765.1l42.1,72.9c-1.5,1.3-2.9,2.7-4.1,4.1  l-72.9-42.1C93.3,786,105.1,774.1,119,765.1z M77.1,812l72.9,42.1c-0.7,1.9-1.2,3.7-1.5,5.7H64.4C65.3,842.6,69.8,826.4,77.1,812z   M64.4,873.6h84.3c0.4,2,0.9,3.8,1.5,5.7l-72.9,42.1C69.8,906.9,65.3,890.7,64.4,873.6z M84.1,933.4l72.9-42.1  c1.3,1.5,2.6,2.9,4.1,4.1L119,968.2C105.1,959.2,93.3,947.3,84.1,933.4z M178.7,988.1c-17.1-0.9-33.3-5.4-47.7-12.9l42.1-72.9  c1.9,0.7,3.7,1.2,5.7,1.5L178.7,988.1L178.7,988.1z M178.7,829.5c-2,0.4-3.8,0.9-5.7,1.5l-42.1-72.9c13.4-6.8,28.4-11.1,44-12.5  l3.7,35L178.7,829.5L178.7,829.5z M306.7,855.3c-9.5,1.5-19.6,3-29.7,4.5h-54.2c-0.4-2-0.9-3.8-1.5-5.7l46.2-26.8l32.5-2  C303.6,834.9,305.8,844.9,306.7,855.3z M296.7,816.9l-11.7,0.5l9.4-5.4C295.1,813.6,295.9,815.2,296.7,816.9z M258.4,789.6h21.3  c2.6,3.3,5.3,6.8,7.6,10.3l-32.5,18.7l-22,0.9L258.4,789.6z M224.1,830l12.5-0.8l-22.1,12.9c-0.1-0.1-0.1-0.3-0.3-0.3L224.1,830z   M192.7,988.1v-84.3c2-0.4,3.8-0.9,5.7-1.5l42.1,72.9C225.9,982.5,209.7,987,192.7,988.1z M252.4,968.4l-42.1-72.9  c1.5-1.3,2.9-2.7,4.1-4.1l72.9,42.1C278.2,947.3,266.3,959.2,252.4,968.4z M294.3,921.3l-70.2-40.5c14.6-2,33-4.5,51.4-7.2h31.7  C306.2,890.7,301.6,906.9,294.3,921.3z M351.8,789.6H441c0,0,11.8,8.6,27.4,19.7L361.1,814C358.5,805.6,355.5,797.6,351.8,789.6z   M367.4,844.1c-0.9-7.7-2.4-15.1-4.2-22.5l112.6-6.9c0.9,0.7,2,1.3,2.9,2.1C454.2,822.9,397.5,837,367.4,844.1z M879.1,404.8  c-0.8,10.2-11,11-14.6,9.5c-1.3-0.5-26.8-0.5-59-0.4c-3.7-5.3-9.3-13.2-15.6-22.4l5.2-14.4l-13.5,2.5  c-20.4-28.9-44.8-62.5-48.5-63.9c-6.6-2.3-14.6,2.3-11.7,7.3c1.6,2.9,23.1,31.5,41.9,57.2l-20,13.5v20.3  c-37.5,0.3-70.4,0.4-74.5,0.1c-10.2-0.8-11-9.5-12.5-15.4s4.4-184.7,4.4-197.2c0,0-0.8-7.3,0.8-10.2c1.5-2.9,5.8-3.7,8.1-3.7  s188.4-8.1,200.9-5.2c12.5,2.9,8.7,8.7,8.7,8.7S879.8,394.6,879.1,404.8z M1081.5,198.8c0,8.7-3.7,187-3.7,197.2  s-2.3,17.5-13.9,18.8c-11.7,1.3-113.9,0.1-121.9,0c-8.1-0.1-11-4.2-11.7-13.8c-0.8-9.5,1.5-195,2.3-209.6  c0.8-14.6,7.3-12.5,14.6-12.5c7.3,0,116.1,1.5,125.6,3C1082.1,183.7,1081.5,190,1081.5,198.8z M1235.8,832.1  c18.4,13.5,48.1,26,67.4,33.5h-74.2C1229.7,853.9,1232.1,842.7,1235.8,832.1z M1229.1,879.4h84.1c0.4,2,0.9,3.8,1.5,5.7l-72.9,42.1  C1234.6,912.7,1230.1,896.5,1229.1,879.4z M1248.8,939.2l72.9-42.1c1.3,1.5,2.7,2.9,4.1,4.1l-42.1,72.9  C1269.9,965,1258,953.1,1248.8,939.2z M1343.6,993.9c-17.1-0.9-33.3-5.4-47.7-12.9l42.1-72.9c1.9,0.7,3.7,1.2,5.7,1.5v84.3H1343.6z   M1357.5,993.9v-84.3c2-0.4,3.8-0.9,5.7-1.5l42.1,72.9C1390.7,988.5,1374.6,993,1357.5,993.9z M1417.2,974.2l-42.1-72.9  c1.5-1.3,2.9-2.6,4.1-4.1l72.9,42.1C1443.1,953.1,1431.1,965,1417.2,974.2z M1459.1,927.3l-72.9-42.1c0.7-1.9,1.2-3.7,1.5-5.7h84.1  C1470.9,896.5,1466.4,912.7,1459.1,927.3z M1387.7,865.5c-0.4-2-0.9-3.8-1.5-5.7l72.9-42.1c7.3,14.4,11.8,30.6,12.9,47.7h-84.3  V865.5z"/>
</svg>
