<?xml version="1.0" encoding="utf-8"?>
<!-- Generator: Adobe Illustrator 23.1.0, SVG Export Plug-In . SVG Version: 6.00 Build 0)  -->
<svg version="1.1" id="Layer_1" xmlns="http://www.w3.org/2000/svg" xmlns:xlink="http://www.w3.org/1999/xlink" x="0px" y="0px"
	 viewBox="0 0 1200 1200" enable-background="new 0 0 1200 1200" xml:space="preserve">
<g>
	<g>
		<g>
			<g>
				<path fill="#35393F" d="M726.26,1112.155c-9.082,1.614-13.446,7.95-18.411,13.617c-18.065,20.619-46.128,22.856-67.121,5.313
					c-3.844-3.213-6.948-7.352-10.928-10.353c-9.334-7.04-18.745-5.856-26.519,2.983c-3.318,3.773-6.04,8.115-9.603,11.62
					c-13.691,13.47-29.854,18.073-48.383,12.088c-15.409-4.977-27.753-14.345-37.47-27.302c-5.213-6.953-9.209-15.073-17.087-19.217
					c-6.919-0.747-10.796,4.06-15.172,7.249c-14.37,10.472-28.461,8.349-41.937-1c-5.544-3.846-10.315-9.192-14.459-14.605
					c-14.808-19.34-23.308-41.641-28.032-65.263c-4.064-20.32-7.25-40.836-10.162-61.36c-4.613-32.514-2.54-65.23-2.092-97.887
					c0.429-31.385,0.492-62.778,1.279-94.153c0.693-27.617,2.07-55.219,3.335-82.819c0.547-11.914,1.037-23.873,2.512-35.692
					c2.096-16.793,4.329-33.639,7.926-50.153c2.699-12.389,8.541-23.881,19.963-30.888c9.077-5.568,12.54-13.367,12.496-23.663
					c-0.059-13.808,0.743-27.623,0.495-41.423c-0.06-3.366-2.166-7.175-4.392-9.918c-3.943-4.858-8.249-9.646-13.199-13.419
					c-14.751-11.24-18.952-27.132-16.533-43.731c5.146-35.315,7.809-71.07,20.303-105.191c10.95-29.907,26.767-56.791,45.074-82.403
					c13.886-19.427,28.46-38.373,43.09-57.253c5.339-6.89,11.719-12.973,18.352-20.22c-11.824-15.917-12.119-34.685-12.483-53.465
					c-0.121-6.283-0.819-12.557-0.861-18.838c-0.039-5.637,0.199-11.304,0.771-16.911c1.487-14.574,8.782-23.525,23.429-28.213
					c43.572-13.948,86.591-12.449,129.526,2.044c4.125,1.392,8.444,3.151,11.704,5.892c3.196,2.687,7.157,6.772,7.29,10.372
					c0.452,12.349,6.906,22.692,9.802,34.168c5.764,22.835,5.226,26.21-8.511,44.573c2.43,3.648,5.123,7.661,7.784,11.695
					c25.252,38.285,50.356,76.669,75.799,114.826c15.583,23.37,25.229,49.008,31.05,76.303c4.191,19.65,9.037,39.169,12.801,58.898
					c1.751,9.178,1.769,18.705,2.308,28.089c0.467,8.144,0.347,16.324,0.884,24.461c0.541,8.2-2.267,14.769-8.523,19.912
					c-4.852,3.989-9.891,7.751-14.699,11.789c-4.57,3.839-6.597,8.542-6.29,14.868c0.545,11.248,0.277,22.546,0.047,33.817
					c-0.12,5.905,1.259,10.966,4.932,15.746c6.117,7.959,11.921,16.176,17.541,24.498c8.575,12.698,13.462,26.641,15.473,41.988
					c3.288,25.078,2.814,50.211,2.069,75.301c-1.08,36.402-3.42,72.764-4.949,109.155c-0.474,11.284,0.755,22.674-0.198,33.896
					c-3.139,36.994-2.195,74.022-2.638,111.068c-0.519,43.32-3.861,86.631-16.304,128.566c-1.563,5.269-4.564,10.215-7.491,14.943
					c-2.613,4.221-6.103,7.891-9.111,11.876c-8.956,11.862-19.858,14.462-32.994,7.378c-4.394-2.369-8.245-5.726-12.463-8.447
					C732.171,1115.356,728.871,1113.649,726.26,1112.155z M526.987,180.42c-6.848,10.525-13.385,21.188-20.526,31.429
					c-17.969,25.773-36.301,51.292-54.309,77.038c-11.588,16.567-20.254,34.609-27.17,53.635
					c-9.516,26.177-13.506,53.493-17.784,80.766c-1.162,7.412-1.791,14.964-1.935,22.465c-0.225,11.665,2.228,22.302,12.164,30.234
					c4.344,3.468,7.833,8.178,11.146,12.735c6.027,8.29,9.65,17.553,9.751,28c0.098,10.05,0.38,20.099,0.456,30.149
					c0.106,13.815-2.857,26.081-15.906,33.931c-10.281,6.185-16.248,16.172-18.492,27.43c-3.305,16.581-5.364,33.445-7.226,50.269
					c-1.449,13.086-1.987,26.285-2.572,39.45c-0.948,21.326-1.923,42.66-2.303,64c-0.524,29.508-0.394,59.027-0.753,88.539
					c-0.313,25.749-2.226,51.552-1.074,77.226c1.605,35.788,6.103,71.39,14.122,106.414c4.254,18.579,12.042,35.637,23.029,51.214
					c5.179,7.343,11.582,13.182,20.242,16.217c6.22,2.18,12.214,2.505,17.895-1.57c4.081-2.927,8.195-5.813,12.393-8.569
					c9.25-6.073,13.759-6.188,21.746,1.305c5.439,5.103,10.125,11.158,14.42,17.297c8.283,11.841,19.645,19.303,32.86,24.145
					c14.416,5.282,27.187,2.655,37.502-9.222c3.704-4.266,7.187-8.726,10.924-12.961c7.418-8.407,17.027-10.226,27.499-8.375
					c8.446,1.493,14.295,7.211,20.247,12.987c18.042,17.511,38.45,17.524,56.702,0.326c4.567-4.303,8.62-9.17,13.324-13.305
					c5.167-4.542,11.444-5.12,17.686-2.571c3.435,1.403,6.405,3.904,9.715,5.663c4.962,2.635,9.871,5.507,15.108,7.456
					c8.037,2.992,15.33,0.367,20.111-6.194c4.377-6.006,8.252-12.813,10.471-19.859c3.572-11.341,6.22-23.065,8.171-34.808
					c8.056-48.496,9.851-97.369,8.211-146.445c-0.419-12.524,0.258-25.092,0.628-37.634c0.221-7.513,0.997-15.01,1.218-22.523
					c0.902-30.761,0.178-61.66,2.924-92.251c2.933-32.667,2.047-65.258,2.079-97.867c0.021-22.211-5.231-43.621-16.683-63.069
					c-5.409-9.184-11.234-18.13-16.441-27.424c-2.404-4.29-4.87-9.038-5.391-13.788c-1.091-9.951-1.519-20.066-1.105-30.067
					c0.566-13.694,4.486-25.915,18.142-32.754c7.422-3.717,10.139-10.872,11.269-18.578c2.296-15.657,2.565-31.293-1.154-46.826
					c-3.655-15.261-7.353-30.512-10.84-45.811c-5.326-23.369-12.995-45.893-24.012-67.205
					c-15.613-30.202-33.675-58.803-54.698-85.605c-10.052-12.814-18.907-26.599-27.787-40.28
					c-3.005-4.629-4.404-10.298-6.567-15.479c-1.133-2.714-2.331-5.4-3.704-8.573C623.407,176.238,575.859,182.773,526.987,180.42z
					 M586.106,167.161c-0.01-0.272-0.02-0.543-0.03-0.815c5.621-0.567,11.239-1.162,16.863-1.697
					c21.386-2.036,41.855-8.007,62.094-14.779c11.597-3.88,14.414-8.768,13.471-21.391c-0.234-3.122-0.733-6.24-1.34-9.314
					c-2.302-11.668-4.826-23.294-7.004-34.985c-1.045-5.609-4.577-8.655-9.393-10.804c-12.13-5.415-24.873-8.544-37.991-10.329
					c-29.029-3.951-57.586,0.243-86.089,5.075c-3.67,0.622-7.179,2.195-10.764,3.318c-5.326,1.669-8.557,5.193-8.985,10.809
					c-0.38,4.986-0.651,10.007-0.51,14.999c0.32,11.287,0.836,22.57,1.447,33.845c0.34,6.262,0.619,12.574,1.647,18.744
					c2.287,13.731,7.098,18.281,21.468,18.519C556.018,168.603,571.067,167.611,586.106,167.161z"/>
			</g>
		</g>
		<g>
			<polygon fill="#A4DBDF" points="660.033,1056.969 656.58,1034.604 656.325,1046.669 			"/>
		</g>
		<g>
			<path fill="#DCF1F6" d="M660.033,1056.969l4.107,11.407L660.033,1056.969l2.174,14.08l8.948,5.787l3.048,0.267l13.468-3.241
				l12.689-15.538l5.722-27.9l14.883-428.259l-32.982,4.397c-5.508,2.366-12.629,4.229-22.46,5.443l-8.943,422.599L660.033,1056.969
				z"/>
		</g>
		<g>
			<g>
				<path fill="#A4DBDF" d="M792.995,593.519c-0.175-0.297-0.358-0.591-0.534-0.888l-70.986,9.465l2.151,5.404l-2.151-5.404
					l-0.511,0.068l-14.883,428.259l1.617-7.885l-1.617,7.885l-0.369,10.626l0.369-10.626l-5.722,27.9l0.312-0.382l-0.312,0.382
					l-2.349,11.451l2.349-11.451l-12.689,15.538l1.089-0.262l-1.089,0.262l-7.584,9.287l7.584-9.287l-13.468,3.241l3.7,0.324
					l-3.7-0.324l-6.141,1.478l6.141-1.478l-3.048-0.267l0.626,0.405l-0.626-0.405l-3.055-0.267l3.055,0.267l-8.948-5.787
					l0.795,5.151l-0.795-5.151l-5.892-3.811l5.892,3.811l-2.174-14.08l-3.708-10.3l-0.027,1.297l0.027-1.297l-6.916-19.21
					l6.916,19.21l0.255-12.065l-1.929-12.493l1.929,12.493l8.943-422.599c-3.279,0.405-6.867,0.736-10.79,0.991l1.835,8.018
					l-1.835-8.018c-11.193,0.728-25.164,0.827-42.873,0.167c-54.193-2.02-108.593-4.915-163.764-28.36
					c0.106-0.011,0.201-0.021,0.305-0.032l-21.716-6.634c-1.169,0.933-2.422,1.829-3.811,2.665
					c-10.281,6.185-16.248,16.172-18.492,27.43c-3.305,16.581-5.364,33.445-7.226,50.269c-1.449,13.086-1.987,26.285-2.572,39.45
					c-0.948,21.326-1.923,42.66-2.303,64c-0.524,29.508-0.394,59.027-0.753,88.539c-0.313,25.749-2.226,51.552-1.074,77.226
					c1.605,35.788,6.103,71.39,14.122,106.414c4.254,18.578,12.042,35.637,23.029,51.214c5.179,7.343,11.582,13.182,20.242,16.217
					c6.22,2.18,12.214,2.505,17.895-1.57c4.081-2.926,8.195-5.813,12.392-8.569c9.25-6.073,13.759-6.188,21.746,1.305
					c5.439,5.103,10.125,11.158,14.42,17.297c8.283,11.841,19.645,19.303,32.86,24.145c14.417,5.282,27.187,2.655,37.502-9.222
					c3.704-4.266,7.187-8.726,10.924-12.961c7.418-8.407,17.027-10.226,27.499-8.375c8.446,1.493,14.295,7.211,20.247,12.987
					c18.042,17.511,38.45,17.524,56.702,0.326c4.567-4.303,8.62-9.17,13.324-13.305c5.167-4.542,11.444-5.12,17.686-2.571
					c3.435,1.403,6.405,3.904,9.715,5.663c4.962,2.635,9.871,5.507,15.108,7.456c8.037,2.992,15.33,0.367,20.112-6.194
					c4.377-6.006,8.252-12.813,10.471-19.859c3.572-11.341,6.22-23.065,8.171-34.808c8.056-48.496,9.851-97.369,8.211-146.445
					c-0.419-12.525,0.258-25.092,0.628-37.634c0.221-7.514,0.997-15.01,1.218-22.523c0.902-30.761,0.178-61.66,2.924-92.251
					c2.933-32.667,2.047-65.258,2.079-97.868C809.699,634.377,804.448,612.966,792.995,593.519z M437.046,1077.968
					c7.292-0.733,10.625,4.766,16.697,8.459C440.215,1088.738,438.464,1087.787,437.046,1077.968z M457.162,1008.926
					c6.268,18.444,12.98,38.191,20.409,60.049C464.469,1053.529,456.759,1029.061,457.162,1008.926z M532.281,1110.364
					c11.059-3.284,11.059-3.284,20.949,3.574C537.672,1119,537.663,1118.998,532.281,1110.364z M622.952,1079.845
					c-0.131,3.552-0.867,7.083-1.323,10.624c-7.469-15.424-5.926-51.457,0.457-77.296c1.019,0.373,2.933,0.779,2.923,1.135
					C624.44,1036.157,623.757,1058.003,622.952,1079.845z M663.068,1111.893c-1.956,0.512-4.563-0.884-6.682-1.838
					c-0.913-0.411-2.022-2.057-1.841-2.878c0.354-1.606,1.253-3.999,2.446-4.364c7.018-2.147,13.9-1.55,23.818,2.452
					C672.89,1108.317,668.102,1110.575,663.068,1111.893z M725.724,1078.15c-3.643-0.723-2.59-3.462-2.415-5.765
					c0.095-1.248,0.32-2.498,0.614-3.716c3.244-13.415,6.921-26.741,9.657-40.257c2.59-12.797,4.2-25.793,6.561-40.715
					C744.443,1018.743,737.212,1062.217,725.724,1078.15z M758.302,1097.382c-2.099-0.165-4.149-0.969-6.218-1.514
					c0.075-0.698,0.151-1.396,0.227-2.094c2.25-0.227,4.511-0.665,6.746-0.56c0.722,0.034,1.378,1.492,2.064,2.298
					C760.177,1096.176,759.186,1097.452,758.302,1097.382z"/>
			</g>
		</g>
		<g>
			<path fill="#73A2A3" d="M646.529,597.935l-0.019-20.878l-2.012-8.792l2.012,8.792l-0.043-45.699l-5.996,16.112l5.996-16.112
				l-0.001-0.876l0.001,0.876l8.655-23.258c-13.004,0.118-26.014,0.104-39.016,0.271c-19.431,0.249-38.864,0.886-58.292,0.756
				c-25.677-0.172-51.442,0.212-76.814-4.64c-5.892-1.127-12.486-0.849-18.905-5.841c0.502-0.257,0.995-0.476,1.484-0.678
				l-34.022-7.844c5.433,7.93,8.67,16.737,8.766,26.6c0.098,10.05,0.38,20.099,0.456,30.149c0.094,12.343-2.284,23.44-12.095,31.266
				l21.716,6.634c5.436-0.565,6.925-1.133,8.094-0.751c39.026,12.733,79.329,16.884,120.082,19.364
				c25.455,1.549,50.874,1.774,76.299,1.492l-6.366-27.82L646.529,597.935z"/>
		</g>
		<g>
			<polygon fill="#73A2A3" points="720.965,602.164 721.476,602.096 721.008,600.921 			"/>
		</g>
		<g>
			<path fill="#73A2A3" d="M776.554,566.095c-2.404-4.29-4.87-9.038-5.391-13.788c-1.091-9.951-1.519-20.066-1.105-30.067
				c0.355-8.586,2.031-16.59,6.595-23.055l-37.15,0.811c0.005,0.763,0.01,1.525,0.014,2.287c-0.649,0.066-1.298,0.14-1.947,0.207
				l-1.155,5.741l1.155-5.741c-4.232,0.441-8.463,0.916-12.693,1.402l-11.061,19.586l-4.085,20.582l1.138,7.002l-0.316-11.028
				l0.316,11.028l3.375,20.763l-3.375-20.763l0.753,26.285l9.385,23.573l0.501-14.409l-0.501,14.409l0.468,1.175l70.986-9.465
				C787.203,583.759,781.592,575.089,776.554,566.095z"/>
		</g>
		<g>
			<path fill="#5C9696" d="M712.081,593.366l-0.459-16.019l-6.07-15.245l6.07,15.245l-0.753-26.285l-1.138-7.002l-1.422,7.162
				l1.422-7.162l-0.573-3.524l0.573,3.524l4.085-20.582l-7.048,12.481l7.048-12.481l1.52-7.659l-1.52,7.659l11.061-19.586
				c-12.434,1.43-24.867,2.895-37.339,3.444c-10.796,0.476-21.604,0.665-32.416,0.763l-8.655,23.258l0.043,45.699l6.366,27.82
				c4.267-0.047,8.535-0.104,12.802-0.177l0.307-14.511l-0.307,14.511c6.581-0.111,13.163-0.239,19.747-0.387
				c1.707-0.038,3.426,0.417,5.772,0.726c-1.007,0.529-2.079,1.035-3.213,1.522l32.982-4.397l0.043-1.243l-9.385-23.573
				L712.081,593.366z"/>
		</g>
		<g>
			<path fill="#A4DBDF" d="M658.625,498.685c0.211-0.002,0.421-0.003,0.632-0.005l0.226-2.3L658.625,498.685z"/>
		</g>
		<g>
			<path fill="#A4DBDF" d="M661.426,321.472l-41.646-147.451c-30.575,5.736-61.41,7.91-92.792,6.399
				c-6.848,10.526-13.385,21.188-20.526,31.429c-17.969,25.773-36.301,51.292-54.309,77.038
				c-11.588,16.567-20.254,34.609-27.17,53.635c-9.516,26.177-13.506,53.493-17.784,80.766c-1.162,7.412-1.791,14.964-1.935,22.466
				c-0.225,11.665,2.228,22.302,12.164,30.234c4.344,3.468,7.833,8.178,11.146,12.734c0.337,0.463,0.664,0.931,0.985,1.401
				l34.022,7.844c4.983-2.057,9.297-1.373,13.431-0.912c38.104,4.253,76.316,3.287,114.528,2.59
				c18.171-0.332,36.343-0.659,54.516-0.841c4.19-0.042,8.381-0.08,12.571-0.119l0.858-2.305l8.175-83.264L661.426,321.472z"/>
		</g>
		<g>
			<path fill="#DCF1F6" d="M741.428,370.243l-16.905-60.709l-74.545-142.356c-10.045,2.665-20.108,4.951-30.2,6.844l41.646,147.451
				l-0.5-7.357l0.5,7.357l5.376,19.034l-5.376-19.034l6.232,91.644l2.558-26.054l-2.558,26.054l2.554,37.551l-2.554-37.551
				l-8.175,83.264l2.972-7.988l-2.972,7.988l-0.226,2.3c20.042-0.185,40.085-0.328,60.127-0.313
				c6.255,0.005,12.51,0.762,18.764,1.25l9.454-46.988L741.428,370.243z"/>
		</g>
		<g>
			<path fill="#A4DBDF" d="M798.314,424.082c-3.655-15.26-7.353-30.512-10.84-45.811c-5.326-23.369-12.995-45.893-24.012-67.205
				c-15.613-30.202-33.675-58.803-54.698-85.605c-10.052-12.814-18.907-26.599-27.787-40.28c-3.005-4.629-4.404-10.298-6.567-15.479
				c-1.133-2.714-2.33-5.4-3.704-8.573c-6.902,2.205-13.811,4.214-20.728,6.048l74.545,142.356l-6.762-24.284l6.762,24.284
				l7.394,14.12l-7.394-14.12l16.905,60.709l-0.956-12.759l0.956,12.759l0.52,1.869l-0.52-1.869l6.174,82.387l2.931-14.567
				l-2.931,14.567l0.277,3.69l-0.277-3.69l-9.454,46.988c0.451,0.035,0.902,0.072,1.353,0.105c0.001,0.091,0.001,0.183,0.002,0.275
				l37.15-0.811c2.716-3.847,6.453-7.148,11.547-9.7c7.422-3.717,10.139-10.872,11.269-18.578
				C801.764,455.25,802.034,439.614,798.314,424.082z"/>
		</g>
		<g>
			<g>
				<path fill="#CC1F36" d="M586.106,167.161c-15.039,0.45-30.088,1.442-45.117,1.194c-14.37-0.237-19.18-4.787-21.468-18.519
					c-1.027-6.169-1.307-12.481-1.647-18.744c-0.611-11.275-1.127-22.558-1.447-33.845c-0.141-4.992,0.13-10.014,0.51-14.999
					c0.428-5.616,3.659-9.141,8.985-10.809c3.586-1.123,7.094-2.696,10.764-3.318c28.502-4.832,57.059-9.026,86.089-5.075
					c13.118,1.786,25.861,4.915,37.991,10.329c4.816,2.15,8.348,5.195,9.393,10.804c2.178,11.691,4.702,23.316,7.004,34.985
					c0.607,3.074,1.106,6.193,1.34,9.314c0.943,12.622-1.874,17.51-13.471,21.391c-20.239,6.772-40.708,12.744-62.094,14.779
					c-5.624,0.535-11.242,1.13-16.863,1.697C586.086,166.618,586.096,166.889,586.106,167.161z M648.333,81.795
					c-2.362-1.507-3.383-2.729-4.389-2.718c-33.788,0.395-67.441,4.864-101.302,3.325c-2.354-0.107-4.75,0.688-9.123,1.378
					c8.515,8.128,17.917,6.203,25.826,6.557C588.945,91.664,618.915,94.558,648.333,81.795z M645.178,130.578
					c-35.194,4.903-70.391,9.796-105.568,14.817c-0.516,0.074-0.801,1.757-1.627,3.718
					C576.136,155.832,610.445,141.327,645.178,130.578z"/>
			</g>
		</g>
		<g>
			<path fill="#35393F" d="M739.517,502.283c-17.324,1.749-34.612,4.288-51.979,5.054c-23.78,1.048-47.619,0.729-71.432,1.035
				c-19.431,0.249-38.864,0.886-58.292,0.756c-25.677-0.172-51.442,0.212-76.814-4.641c-5.892-1.127-12.486-0.849-18.905-5.841
				c5.621-2.882,10.375-2.096,14.915-1.59c38.104,4.253,76.316,3.287,114.528,2.59c18.171-0.332,36.343-0.659,54.516-0.841
				c24.443-0.244,48.887-0.456,73.331-0.438c6.706,0.005,13.411,0.879,20.117,1.355
				C739.506,500.575,739.512,501.429,739.517,502.283z"/>
		</g>
		<g>
			<path fill="#35393F" d="M691.196,605.04c-12.181,6.395-32.98,9.852-79.336,8.125c-54.193-2.02-108.593-4.915-163.764-28.36
				c5.694-0.575,7.207-1.172,8.399-0.783c39.026,12.733,79.329,16.884,120.082,19.364c36.316,2.21,72.557,1.747,108.848,0.929
				C687.132,604.275,688.85,604.731,691.196,605.04z"/>
		</g>
		<g>
			<path fill="#35393F" d="M740.14,987.696c4.303,31.047-2.928,74.521-14.416,90.454c-3.643-0.723-2.59-3.462-2.415-5.765
				c0.095-1.248,0.32-2.498,0.614-3.716c3.244-13.415,6.921-26.74,9.657-40.257C736.169,1015.615,737.78,1002.619,740.14,987.696z"
				/>
		</g>
		<g>
			<path fill="#35393F" d="M621.629,1090.469c-7.469-15.424-5.926-51.457,0.459-77.301c1.018,0.378,2.931,0.784,2.922,1.14
				c-0.57,21.849-1.253,43.695-2.058,65.537C622.821,1083.398,622.085,1086.928,621.629,1090.469z"/>
		</g>
		<g>
			<path fill="#35393F" d="M477.57,1068.975c-13.102-15.446-20.811-39.914-20.408-60.049
				C463.43,1027.37,470.142,1047.117,477.57,1068.975z"/>
		</g>
		<g>
			<path fill="#35393F" d="M680.81,1105.266c-7.92,3.051-12.708,5.309-17.742,6.627c-1.956,0.512-4.563-0.884-6.682-1.838
				c-0.913-0.411-2.022-2.057-1.841-2.878c0.354-1.606,1.253-3.999,2.446-4.364C664.01,1100.667,670.892,1101.264,680.81,1105.266z"
				/>
		</g>
		<g>
			<path fill="#35393F" d="M532.281,1110.364c11.059-3.284,11.059-3.284,20.949,3.574
				C537.672,1119,537.663,1118.998,532.281,1110.364z"/>
		</g>
		<g>
			<path fill="#35393F" d="M453.743,1086.427c-13.528,2.311-15.279,1.36-16.697-8.459
				C444.338,1077.235,447.671,1082.734,453.743,1086.427z"/>
		</g>
		<g>
			<path fill="#35393F" d="M752.31,1093.774c2.25-0.227,4.511-0.665,6.746-0.56c0.722,0.034,1.378,1.492,2.064,2.298
				c-0.943,0.664-1.933,1.94-2.818,1.871c-2.099-0.165-4.149-0.969-6.218-1.514C752.159,1095.17,752.234,1094.472,752.31,1093.774z"
				/>
		</g>
		<g>
			<path fill="#35393F" d="M648.333,81.795c-29.417,12.763-59.388,9.869-88.988,8.543c-7.909-0.354-17.311,1.571-25.826-6.557
				c4.373-0.691,6.768-1.485,9.123-1.378c33.861,1.539,67.514-2.93,101.302-3.325C644.95,79.065,645.971,80.288,648.333,81.795z"/>
		</g>
		<g>
			<path fill="#35393F" d="M645.178,130.578c-34.734,10.749-69.042,25.254-107.195,18.534c0.826-1.96,1.112-3.644,1.627-3.718
				C574.788,140.374,609.984,135.482,645.178,130.578z"/>
		</g>
	</g>
</g>
</svg>
